<svg xmlns="http://www.w3.org/2000/svg" viewBox="1086 696 568 848" font-family="Helvetica, Arial, 'PingFang SC', 'Microsoft YaHei', sans-serif"><path d="M 1530 770 L 1530 785 L 1530 785 L 1530 800" fill="none" stroke="#000000" stroke-width="2"/><path d="M 1530 800 L 1534 790 L 1526 790 Z" fill="#000000" stroke="#000000" stroke-width="2"/><path d="M 1530 860 L 1530 875 L 1530 875 L 1530 890" fill="none" stroke="#000000" stroke-width="2"/><path d="M 1530 890 L 1534 880 L 1526 880 Z" fill="#000000" stroke="#000000" stroke-width="2"/><path d="M 1530 940 L 1530 955 L 1530 955 L 1530 970" fill="none" stroke="#000000" stroke-width="2"/><path d="M 1530 970 L 1534 960 L 1526 960 Z" fill="#000000" stroke="#000000" stroke-width="2"/><path d="M 1530 1060 L 1530 1075 L 1530 1075 L 1530 1090" fill="none" stroke="#000000" stroke-width="2"/><path d="M 1530 1090 L 1534 1080 L 1526 1080 Z" fill="#000000" stroke="#000000" stroke-width="2"/><text text-anchor="middle" font-size="13" font-family="Helvetica, Arial, 'PingFang SC', 'Microsoft YaHei', sans-serif"><tspan x="1523.5" y="1077.6000000000001" font-size="13" font-weight="600">是</tspan></text><path d="M 1450 1015 L 1375 1015 L 1375 1015 L 1300 1015" fill="none" stroke="#000000" stroke-width="2"/><path d="M 1300 1015 L 1310 1019 L 1310 1011 Z" fill="#000000" stroke="#000000" stroke-width="2"/><text text-anchor="middle" font-size="13" font-family="Helvetica, Arial, 'PingFang SC', 'Microsoft YaHei', sans-serif"><tspan x="1368.5" y="1017.6" font-size="13" font-weight="600">否</tspan></text><path d="M 1266.4864864864865 980 L 1266.4864864864865 920 L 1477.2972972972973 920 L 1477.2972972972973 860" fill="none" stroke="#b85450" stroke-width="1" stroke-dasharray="3 3"/><path d="M 1477.2972972972973 860 L 1473.2972972972973 870 L 1481.2972972972973 870 Z" fill="#b85450" stroke="#b85450" stroke-width="1"/><text text-anchor="middle" font-size="12" font-family="Helvetica, Arial, 'PingFang SC', 'Microsoft YaHei', sans-serif"><tspan x="1347.8918918918919" y="922.4" font-size="12">重新输入</tspan></text><path d="M 1530 1150 L 1530 1165 L 1530 1165 L 1530 1180" fill="none" stroke="#000000" stroke-width="2"/><path d="M 1530 1180 L 1534 1170 L 1526 1170 Z" fill="#000000" stroke="#000000" stroke-width="2"/><path d="M 1530 1270 L 1530 1285 L 1530 1285 L 1530 1300" fill="none" stroke="#000000" stroke-width="2"/><path d="M 1530 1300 L 1534 1290 L 1526 1290 Z" fill="#000000" stroke="#000000" stroke-width="2"/><text text-anchor="middle" font-size="13" font-family="Helvetica, Arial, 'PingFang SC', 'Microsoft YaHei', sans-serif"><tspan x="1523.5" y="1287.6000000000001" font-size="13" font-weight="600">是</tspan></text><path d="M 1460.357142857143 1180 L 1460.357142857143 1115 L 1259.1666666666667 1115 L 1259.1666666666667 1050" fill="none" stroke="#000000" stroke-width="2"/><path d="M 1259.1666666666667 1050 L 1255.1666666666667 1060 L 1263.1666666666667 1060 Z" fill="#000000" stroke="#000000" stroke-width="2"/><text text-anchor="middle" font-size="13" font-family="Helvetica, Arial, 'PingFang SC', 'Microsoft YaHei', sans-serif"><tspan x="1353.2619047619048" y="1117.6000000000001" font-size="13" font-weight="600">否</tspan></text><path d="M 1530 1360 L 1530 1375 L 1530 1375 L 1530 1390" fill="none" stroke="#000000" stroke-width="2"/><path d="M 1530 1390 L 1534 1380 L 1526 1380 Z" fill="#000000" stroke="#000000" stroke-width="2"/><path d="M 1530 1440 L 1530 1455 L 1530 1455 L 1530 1470" fill="none" stroke="#000000" stroke-width="2"/><path d="M 1530 1470 L 1534 1460 L 1526 1460 Z" fill="#000000" stroke="#000000" stroke-width="2"/><g><path d="M 1440 720 L 1620 720 A 10 10 0 0 1 1630 730 L 1630 760 A 10 10 0 0 1 1620 770 L 1440 770 A 10 10 0 0 1 1430 760 L 1430 730 A 10 10 0 0 1 1440 720 Z" fill="#d5e8d4" stroke="#82b366" stroke-width="1"/><text text-anchor="middle" font-size="14" font-family="Helvetica, Arial, 'PingFang SC', 'Microsoft YaHei', sans-serif"><tspan x="1483.45" y="747.8000000000001" font-size="14">开始
(Start)</tspan></text></g><g><path d="M 1433 800 L 1627 800 A 3 3 0 0 1 1630 803 L 1630 857 A 3 3 0 0 1 1627 860 L 1433 860 A 3 3 0 0 1 1430 857 L 1430 803 A 3 3 0 0 1 1433 800 Z" fill="#dae8fc" stroke="#6c8ebf" stroke-width="1"/><text text-anchor="middle" font-size="14" font-family="Helvetica, Arial, 'PingFang SC', 'Microsoft YaHei', sans-serif"><tspan x="1474" y="832.8000000000001" font-size="14">输入用户名和密码</tspan></text></g><g><path d="M 1432.5 890 L 1627.5 890 A 2.5 2.5 0 0 1 1630 892.5 L 1630 937.5 A 2.5 2.5 0 0 1 1627.5 940 L 1432.5 940 A 2.5 2.5 0 0 1 1430 937.5 L 1430 892.5 A 2.5 2.5 0 0 1 1432.5 890 Z" fill="#dae8fc" stroke="#6c8ebf" stroke-width="1"/><text text-anchor="middle" font-size="14" font-family="Helvetica, Arial, 'PingFang SC', 'Microsoft YaHei', sans-serif"><tspan x="1488" y="917.8000000000001" font-size="14">点击「登录」</tspan></text></g><g><path d="M 1530 970 L 1610 1015 L 1530 1060 L 1450 1015 Z" fill="#fff2cc" stroke="#d6b656" stroke-width="1"/><text text-anchor="middle" font-size="14" font-family="Helvetica, Arial, 'PingFang SC', 'Microsoft YaHei', sans-serif"><tspan x="1456.85" y="1009.4000000000001" font-size="14">前端校验
非空 / 格式</tspan></text><text text-anchor="middle" font-size="14" font-family="Helvetica, Arial, 'PingFang SC', 'Microsoft YaHei', sans-serif"><tspan x="1509" y="1026.2" font-size="14">正确？</tspan></text></g><g><path d="M 1113.5 980 L 1296.5 980 A 3.5 3.5 0 0 1 1300 983.5 L 1300 1046.5 A 3.5 3.5 0 0 1 1296.5 1050 L 1113.5 1050 A 3.5 3.5 0 0 1 1110 1046.5 L 1110 983.5 A 3.5 3.5 0 0 1 1113.5 980 Z" fill="#f8cecc" stroke="#b85450" stroke-width="1"/><text text-anchor="middle" font-size="13" font-family="Helvetica, Arial, 'PingFang SC', 'Microsoft YaHei', sans-serif"><tspan x="1115.3" y="1017.6" font-size="13">提示错误信息
并高亮对应字段</tspan></text></g><g><path d="M 1433 1090 L 1627 1090 A 3 3 0 0 1 1630 1093 L 1630 1147 A 3 3 0 0 1 1627 1150 L 1433 1150 A 3 3 0 0 1 1430 1147 L 1430 1093 A 3 3 0 0 1 1433 1090 Z" fill="#dae8fc" stroke="#6c8ebf" stroke-width="1"/><text text-anchor="middle" font-size="14" font-family="Helvetica, Arial, 'PingFang SC', 'Microsoft YaHei', sans-serif"><tspan x="1436.2" y="1114.4" font-size="14">发送登录请求
POST /api/lo</tspan></text><text text-anchor="middle" font-size="14" font-family="Helvetica, Arial, 'PingFang SC', 'Microsoft YaHei', sans-serif"><tspan x="1518.45" y="1131.2" font-size="14">gin</tspan></text></g><g><path d="M 1530 1180 L 1610 1225 L 1530 1270 L 1450 1225 Z" fill="#fff2cc" stroke="#d6b656" stroke-width="1"/><text text-anchor="middle" font-size="14" font-family="Helvetica, Arial, 'PingFang SC', 'Microsoft YaHei', sans-serif"><tspan x="1454.4" y="1219.4" font-size="14">后端验证
账号密码正确</tspan></text><text text-anchor="middle" font-size="14" font-family="Helvetica, Arial, 'PingFang SC', 'Microsoft YaHei', sans-serif"><tspan x="1523" y="1236.2" font-size="14">？</tspan></text></g><g><path d="M 1433 1300 L 1627 1300 A 3 3 0 0 1 1630 1303 L 1630 1357 A 3 3 0 0 1 1627 1360 L 1433 1360 A 3 3 0 0 1 1430 1357 L 1430 1303 A 3 3 0 0 1 1433 1300 Z" fill="#d5e8d4" stroke="#82b366" stroke-width="1"/><text text-anchor="middle" font-size="14" font-family="Helvetica, Arial, 'PingFang SC', 'Microsoft YaHei', sans-serif"><tspan x="1437.6" y="1324.4" font-size="14">创建会话 / Token
保存登录</tspan></text><text text-anchor="middle" font-size="14" font-family="Helvetica, Arial, 'PingFang SC', 'Microsoft YaHei', sans-serif"><tspan x="1516" y="1341.2" font-size="14">状态</tspan></text></g><g><path d="M 1432.5 1390 L 1627.5 1390 A 2.5 2.5 0 0 1 1630 1392.5 L 1630 1437.5 A 2.5 2.5 0 0 1 1627.5 1440 L 1432.5 1440 A 2.5 2.5 0 0 1 1430 1437.5 L 1430 1392.5 A 2.5 2.5 0 0 1 1432.5 1390 Z" fill="#d5e8d4" stroke="#82b366" stroke-width="1"/><text text-anchor="middle" font-size="14" font-family="Helvetica, Arial, 'PingFang SC', 'Microsoft YaHei', sans-serif"><tspan x="1455.45" y="1417.8" font-size="14">跳转到首页 / 回调地址</tspan></text></g><g><path d="M 1440 1470 L 1620 1470 A 10 10 0 0 1 1630 1480 L 1630 1510 A 10 10 0 0 1 1620 1520 L 1440 1520 A 10 10 0 0 1 1430 1510 L 1430 1480 A 10 10 0 0 1 1440 1470 Z" fill="#f8cecc" stroke="#b85450" stroke-width="1"/><text text-anchor="middle" font-size="14" font-family="Helvetica, Arial, 'PingFang SC', 'Microsoft YaHei', sans-serif"><tspan x="1491.15" y="1497.8" font-size="14">结束
(End)</tspan></text></g></svg>